<svg width="117" height="13" viewBox="0 0 117 13" fill="none" xmlns="http://www.w3.org/2000/svg">
<path d="M9.42694 0.169565V2.03478H5.84912V10.0986H3.57782V2.03478H0V0.169565H9.42694Z" fill="white"/>
<path d="M16.6542 5.85942C16.681 6.22367 16.7614 6.5628 16.8954 6.87681C17.0294 7.19082 17.2103 7.46715 17.4381 7.7058C17.6659 7.93188 17.9473 8.11401 18.2823 8.25217C18.6307 8.39034 19.0327 8.45942 19.4883 8.45942C19.9707 8.45942 20.4129 8.37778 20.8149 8.21449C21.2303 8.05121 21.5318 7.7686 21.7194 7.36667H24.0711C23.9371 7.86908 23.716 8.30242 23.4078 8.66667C23.113 9.03092 22.7579 9.33237 22.3425 9.57101C21.9405 9.7971 21.4916 9.96667 20.9958 10.0797C20.5134 10.1802 19.9975 10.2304 19.4481 10.2304C18.6039 10.2304 17.8602 10.1111 17.217 9.87246C16.5872 9.63382 16.0579 9.28841 15.6291 8.83623C15.2003 8.38406 14.8787 7.85024 14.6643 7.23478C14.4633 6.60676 14.3628 5.90338 14.3628 5.12464C14.3628 4.37101 14.4767 3.68647 14.7045 3.07101C14.9323 2.443 15.2606 1.9029 15.6894 1.45072C16.1316 0.99855 16.6609 0.646859 17.2773 0.395652C17.8937 0.131884 18.5972 0 19.3878 0C20.2186 0 20.9355 0.131884 21.5385 0.395652C22.1415 0.646859 22.644 0.99227 23.046 1.43188C23.4614 1.8715 23.7696 2.38647 23.9706 2.97681C24.1716 3.56715 24.2721 4.20773 24.2721 4.89855C24.2721 5.22512 24.252 5.54541 24.2118 5.85942H16.6542ZM22.041 4.23913C22.0008 3.46039 21.7395 2.87005 21.2571 2.46812C20.7881 2.06618 20.1717 1.86522 19.4079 1.86522C18.9791 1.86522 18.6039 1.92802 18.2823 2.05362C17.9607 2.17923 17.686 2.34879 17.4582 2.56232C17.2438 2.77585 17.0696 3.02705 16.9356 3.31594C16.8016 3.60483 16.7145 3.91256 16.6743 4.23913H22.041Z" fill="white"/>
<path d="M36.7021 10.0986L34.1293 6.55652L31.6369 10.0986H29.1043L32.7625 5.06812L29.2852 0.169565H31.9384L34.2499 3.67391L36.5011 0.169565H39.1141L35.6167 5.1058L39.3352 10.0986H36.7021Z" fill="white"/>
<path d="M70.1739 0.169565V2.03478H66.596V10.0986H64.3247V2.03478H60.7469V0.169565H70.1739Z" fill="white"/>
<path d="M76.2648 3.71159C76.305 3.1087 76.3318 2.52464 76.3452 1.95942C76.3586 1.38164 76.3653 0.785024 76.3653 0.169565H84.5259V8.27101H85.9129V13H83.6817V10.0986H76.4457V13H74.2146V8.27101C74.6032 8.27101 74.9248 8.15797 75.1794 7.93188C75.4474 7.69324 75.6283 7.42947 75.7221 7.14058C75.8159 6.93961 75.8963 6.66957 75.9633 6.33043C76.0303 5.97874 76.0839 5.63333 76.1241 5.2942C76.1643 4.95507 76.1978 4.64106 76.2246 4.35217C76.2514 4.06328 76.2648 3.84976 76.2648 3.71159ZM82.2345 2.03478H78.4557C78.4289 2.48696 78.4088 2.97681 78.3954 3.50435C78.382 4.03188 78.3619 4.54058 78.3351 5.03043C78.3083 5.26908 78.2815 5.52657 78.2547 5.8029C78.2413 6.07923 78.2078 6.36184 78.1542 6.65072C78.1006 6.92705 78.0269 7.20338 77.9331 7.47971C77.8393 7.75604 77.712 8.01981 77.5512 8.27101H82.2345V2.03478Z" fill="white"/>
<path d="M93.4144 5.85942C93.4412 6.22367 93.5216 6.5628 93.6556 6.87681C93.7896 7.19082 93.9705 7.46715 94.1983 7.7058C94.4261 7.93188 94.7075 8.11401 95.0425 8.25217C95.3909 8.39034 95.7929 8.45942 96.2485 8.45942C96.7309 8.45942 97.1731 8.37778 97.5751 8.21449C97.9905 8.05121 98.2921 7.7686 98.4797 7.36667H100.831C100.697 7.86908 100.476 8.30242 100.168 8.66667C99.8733 9.03092 99.5182 9.33237 99.1027 9.57101C98.7007 9.7971 98.2518 9.96667 97.756 10.0797C97.2736 10.1802 96.7577 10.2304 96.2083 10.2304C95.3641 10.2304 94.6204 10.1111 93.9772 9.87246C93.3474 9.63382 92.8181 9.28841 92.3893 8.83623C91.9605 8.38406 91.6389 7.85024 91.4245 7.23478C91.2235 6.60676 91.123 5.90338 91.123 5.12464C91.123 4.37101 91.2369 3.68647 91.4647 3.07101C91.6925 2.443 92.0208 1.9029 92.4496 1.45072C92.8918 0.99855 93.4211 0.646859 94.0375 0.395652C94.6539 0.131884 95.3574 0 96.148 0C96.9788 0 97.6957 0.131884 98.2987 0.395652C98.9017 0.646859 99.4043 0.99227 99.8063 1.43188C100.222 1.8715 100.53 2.38647 100.731 2.97681C100.932 3.56715 101.032 4.20773 101.032 4.89855C101.032 5.22512 101.012 5.54541 100.972 5.85942H93.4144ZM98.8012 4.23913C98.761 3.46039 98.4997 2.87005 98.0173 2.46812C97.5483 2.06618 96.9319 1.86522 96.1681 1.86522C95.7393 1.86522 95.3641 1.92802 95.0425 2.05362C94.7209 2.17923 94.4462 2.34879 94.2184 2.56232C94.004 2.77585 93.8298 3.02705 93.6958 3.31594C93.5618 3.60483 93.4747 3.91256 93.4345 4.23913H98.8012Z" fill="white"/>
<path d="M108.013 5.36957C108.08 4.51546 108.12 3.66763 108.133 2.82609C108.16 1.97198 108.187 1.08647 108.214 0.169565H116.133V10.0986H113.822V2.03478H110.345C110.318 2.65024 110.291 3.2657 110.264 3.88116C110.251 4.48406 110.224 5.08696 110.184 5.68986C110.17 5.91594 110.144 6.18599 110.103 6.5C110.076 6.80145 110.036 7.10918 109.983 7.42319C109.929 7.72464 109.849 8.01353 109.742 8.28986C109.634 8.55362 109.5 8.79855 109.34 9.02464C109.058 9.40145 108.683 9.67778 108.214 9.85362C107.758 10.0169 107.229 10.0986 106.626 10.0986H106.063V8.25217C106.465 8.25217 106.787 8.16425 107.028 7.98841C107.283 7.8 107.47 7.56763 107.591 7.2913C107.725 7.00242 107.819 6.69469 107.872 6.36812C107.939 6.02899 107.986 5.69614 108.013 5.36957Z" fill="white"/>
<path fill-rule="evenodd" clip-rule="evenodd" d="M46.4013 5.0744L48.2855 8.13198H52.0541L53.9384 5.0744L52.0541 2.01682L48.2855 2.01682L46.4013 5.0744ZM44.2804 4.58275C44.0929 4.88698 44.0929 5.26181 44.2804 5.56604L46.7706 9.60691C46.9581 9.91114 47.3046 10.0986 47.6796 10.0986L52.66 10.0985C53.035 10.0985 53.3815 9.91114 53.569 9.60691L56.0592 5.56604C56.2467 5.26181 56.2467 4.88698 56.0592 4.58275L53.569 0.541885C53.3815 0.237656 53.035 0.0502423 52.66 0.0502423L47.6796 0.0502426C47.3046 0.0502426 46.9581 0.237656 46.7706 0.541886L44.2804 4.58275Z" fill="#DA1135"/>
</svg>
