<svg viewBox="0 0 113 40" fill="none" xmlns="http://www.w3.org/2000/svg">
<path fill-rule="evenodd" clip-rule="evenodd" d="M113 22.0888H110.17V39.9692H113V22.0888ZM102.996 37.4156V31.3622H104.335C105.234 31.3622 105.725 31.771 105.725 33.0477V35.7301C105.725 37.0069 105.234 37.4156 104.335 37.4156H102.996ZM104.335 39.9692C107.162 39.9692 108.552 38.4124 108.552 35.5509V33.2241C108.552 30.3654 107.162 28.8058 104.335 28.8058H102.996V22.086H100.169V39.9664H104.335V39.9692ZM90.1649 22.0888H86.2299V39.9692H88.6991V27.3247L90.8076 39.9692H93.4826L95.4361 27.1455V39.9692H98.1111V22.0888H94.1761L92.248 34.7837L90.1649 22.0888ZM79.8509 25.2555L81.2152 34.2993H78.4895L79.8538 25.2555H79.8509ZM82.0637 22.0888H77.9229L75.0421 39.9692H77.641L78.1286 36.7241H81.6014L82.0891 39.9692H84.9417L82.0609 22.0888H82.0637ZM63.4202 39.9972H63.8571C66.6871 39.9972 67.8682 38.7204 67.9725 35.4501L68.2798 24.6451H70.749V39.972H73.6298V22.0916H65.6301L65.1678 35.6069C65.1171 37.2673 64.7027 37.4465 63.4202 37.4465V40V39.9972ZM60.0263 39.972H62.9325L58.9975 30.0602L62.9325 22.0888H60.1052L56.4013 29.881V22.0888H53.5713V39.9692H56.4013V34.4785L57.278 32.8433L60.0291 39.9692L60.0263 39.972ZM46.9358 24.6451H51.8236V22.0916H44.1086V39.972H51.8236V37.4184H46.9358V32.1826H50.8201V29.629H46.9358V24.6479V24.6451ZM38.5781 24.6451C39.4773 24.6451 39.9649 25.0539 39.9649 26.3307V29.013C39.9649 30.2898 39.4773 30.6986 38.5781 30.6986H37.2392V24.6451H38.5781ZM38.5781 22.0916H34.4119V39.972H37.242V33.2549H38.5809C41.411 33.2549 42.7978 31.6954 42.7978 28.8366V26.5127C42.7978 23.6511 41.4082 22.0916 38.5809 22.0916H38.5781ZM94.9005 2.76075V8.25423H93.7927C92.7385 8.25423 92.0958 7.79504 92.0958 6.36427V4.60311C92.0958 3.32633 92.5327 2.76354 93.5362 2.76354H94.9005V2.76075ZM91.8139 18.0876C91.9689 17.6284 92.0704 17.3457 92.0704 15.8897V13.0785C92.0704 11.4182 92.6342 10.805 93.9224 10.805H94.9005V18.0848H97.7306V0.201596H93.4629C90.5314 0.201596 89.2714 1.55677 89.2714 4.31471V5.72028C89.2714 7.55985 89.8633 8.76102 91.1233 9.34901C89.7111 9.937 89.246 11.2894 89.246 13.1541V15.9121C89.246 16.7801 89.2206 17.4185 88.9387 18.0848H91.8195L91.8139 18.0876ZM83.7381 9.8866L84.8938 5.49349V18.0876H87.4391V0.204395H84.3272L82.013 7.58785L80.9841 11.5218V0.204395H78.4641V18.0876H81.3703L83.7352 9.8866H83.7381ZM66.7633 18.0876H74.1711V20.4872H76.9222V15.5845H75.6876V0.204395H72.8068V15.5313H69.5933V0.204395H66.7633V18.0876ZM59.1271 4.31751C59.1271 3.04074 59.6937 2.55355 60.5929 2.55355C61.4921 2.55355 62.0587 3.04074 62.0587 4.31751V13.9745C62.0587 15.2513 61.4921 15.7385 60.5929 15.7385C59.6937 15.7385 59.1271 15.2541 59.1271 13.9745V4.31751ZM56.2999 13.7953C56.2999 16.6569 57.8164 18.292 60.5929 18.292C63.3694 18.292 64.8887 16.6569 64.8887 13.7953V4.49671C64.8887 1.63517 63.3722 0 60.5929 0C57.8136 0 56.2999 1.63517 56.2999 4.49671V7.86784H54.1914V0.204395H51.3642V18.0876H54.1914V10.4242H56.2999V13.7953ZM38.9924 18.1128H39.4294C42.2566 18.1128 43.4405 16.8361 43.5448 13.5657L43.8521 2.76075H46.3213V18.0876H49.2021V0.204395H41.2052L40.7429 13.7169C40.6922 15.3773 40.2806 15.5565 38.9953 15.5565V18.11L38.9924 18.1128ZM29.3747 13.7953C29.3747 16.6569 30.8912 18.292 33.6677 18.292C36.4442 18.292 37.9636 16.6569 37.9636 13.7953V4.49671C37.9636 1.63517 36.4471 0 33.6677 0C30.8884 0 29.3747 1.63517 29.3747 4.49671V13.7953ZM32.2048 4.31751C32.2048 3.04074 32.7714 2.55355 33.6706 2.55355C34.5697 2.55355 35.1363 3.04074 35.1363 4.31751V13.9745C35.1363 15.2513 34.5697 15.7385 33.6706 15.7385C32.7714 15.7385 32.2048 15.2541 32.2048 13.9745V4.31751ZM23.3594 2.75794C24.3629 2.75794 24.7998 3.32073 24.7998 4.59751V5.59429C24.7998 7.02506 24.1571 7.48425 23.1029 7.48425H21.9979V2.75794H23.3622H23.3594ZM23.2551 10.0378C24.5405 10.0378 25.0817 10.5502 25.0817 12.2106V13.7673C25.0817 15.0973 24.5686 15.5313 23.6159 15.5313H21.9951V10.0378H23.2551ZM23.4355 0.204395H19.1678V18.0876H23.6159C26.446 18.0876 27.9117 16.6065 27.9117 13.8457V12.3898C27.9117 10.4998 27.3198 9.14462 25.8033 8.55943C27.0633 7.97144 27.6299 6.79546 27.6299 4.9587V4.32031C27.6299 1.55957 26.3699 0.207193 23.4383 0.207193L23.4355 0.204395ZM12.5324 2.75794H17.4174V0.204395H9.7023V18.0876H17.4174V15.5341H12.5324V10.2982H16.4167V7.74464H12.5324V2.76354V2.75794ZM4.17464 2.75794C5.07666 2.75794 5.56431 3.16674 5.56431 4.44351V7.12586C5.56431 8.40263 5.07666 8.81142 4.17464 8.81142H2.83853V2.75794H4.17464ZM4.17464 0.204395H0V18.0876H2.83007V11.3678H4.16618C6.99626 11.3678 8.38311 9.8082 8.38311 6.94666V4.62271C8.38311 1.76116 6.99344 0.204395 4.16618 0.204395H4.17464Z" fill="currentColor"/>
</svg>
