<svg viewBox="0 0 454 535" fill="none" xmlns="http://www.w3.org/2000/svg">
<path d="M134.915 56.4802H0V535H91.6148V355.242H148.13L106.24 494.515L268.524 143.285C292.656 90.9728 213.002 56.4802 134.863 56.4802H134.915ZM134.915 124.84C164.061 124.84 179.887 135.782 179.887 169.962V241.709C179.887 275.889 164.061 286.83 134.915 286.83H91.6148V124.892H134.915V124.84Z" fill="currentColor"/>
<path d="M317.466 156.623L359.565 0L182.551 381.086V534.427H274.113V455.281H317.414C409.028 455.281 453.948 413.599 453.948 337.006V274.795C453.948 199.453 410.439 157.197 321.801 156.571H317.361L317.466 156.623ZM317.466 224.931C346.611 224.931 362.438 235.873 362.438 270.053V341.852C362.438 376.032 346.611 386.974 317.466 386.974H274.166V224.983H317.466V224.931Z" fill="currentColor"/>
</svg>
