<svg viewBox="0 0 22 22" fill="none" xmlns="http://www.w3.org/2000/svg">
<path d="M19.8417 17.6975C19.2313 19.4178 17.0336 20.2779 15.4464 20.155C13.2487 19.9093 10.9289 18.8034 9.09755 17.5746C6.53359 15.7315 3.96964 12.7825 2.62661 9.7106C1.64987 7.49884 1.40568 4.91845 2.8708 2.95244C3.48126 2.21518 3.96964 1.84655 4.94638 1.84655C6.16731 1.72368 6.4115 2.46093 6.77778 3.68969C7.14406 4.54982 7.51034 5.40995 7.75452 6.27008C8.2429 7.86746 6.65569 7.99034 6.4115 9.34197C6.28941 10.2021 7.26615 11.308 7.75452 11.9224C8.60918 13.1511 9.70801 14.1341 10.9289 14.8714C11.6615 15.3629 12.7603 16.1001 13.4929 15.6086C14.7138 14.9943 14.5917 12.9054 16.301 13.5197C17.1557 13.8884 18.0103 14.3799 18.865 14.8714C20.4522 15.4858 20.3301 16.223 19.8417 17.6975C20.208 16.5916 19.4755 18.8034 19.8417 17.6975Z" fill="currentColor"/>
</svg>
