<svg viewBox="0 0 23 21" fill="none" xmlns="http://www.w3.org/2000/svg">
<path d="M0.519539 9.92084L5.6924 11.8497L7.70892 18.3377C7.7966 18.776 8.32265 18.8637 8.67335 18.6007L11.5666 16.2335C11.8297 15.9704 12.268 15.9704 12.6187 16.2335L17.7916 20.0035C18.1423 20.2665 18.6683 20.0912 18.756 19.6528L22.6137 1.24099C22.7014 0.802611 22.263 0.364239 21.8246 0.539589L0.519539 8.78106C-0.0065129 8.95642 -0.0065129 9.74549 0.519539 9.92084ZM7.44591 10.8853L17.6162 4.66032C17.7916 4.57265 17.9669 4.83568 17.7916 4.92335L9.46243 12.7265C9.1994 12.9895 8.93637 13.3402 8.93637 13.7786L8.67335 15.8828C8.67335 16.1458 8.23497 16.2335 8.1473 15.8828L7.09518 12.025C6.83216 11.5867 7.00753 11.0606 7.44591 10.8853Z" fill="currentColor"/>
</svg>
