<svg viewBox="0 0 25 25" fill="none" xmlns="http://www.w3.org/2000/svg">
<path d="M12.5 0.125C19.3347 0.125 24.875 5.66528 24.875 12.5C24.875 19.3347 19.3347 24.875 12.5 24.875C10.3131 24.8785 8.16462 24.2998 6.27539 23.1982L0.129967 24.875L1.80307 18.7271C0.70057 16.8373 0.121364 14.6879 0.125017 12.5C0.125017 5.66528 5.6653 0.125 12.5 0.125ZM8.28261 6.68375L8.03511 6.69365C7.87488 6.7034 7.71829 6.7455 7.57476 6.8174C7.44052 6.89341 7.31798 6.98845 7.21094 7.09955C7.06244 7.23938 6.97829 7.36066 6.88795 7.47822C6.43023 8.07334 6.18378 8.80397 6.18753 9.55474C6.19 10.1611 6.3484 10.7514 6.5959 11.3033C7.10204 12.4196 7.93487 13.6014 9.03377 14.6966C9.2986 14.9601 9.55847 15.225 9.83815 15.4712C11.2036 16.6734 12.8307 17.5404 14.5901 18.0032L15.293 18.1108C15.522 18.1232 15.7509 18.1059 15.9811 18.0947C16.3415 18.0761 16.6934 17.9785 17.0119 17.8089C17.174 17.7254 17.3321 17.6345 17.4859 17.5366C17.4859 17.5366 17.5391 17.502 17.6406 17.4252C17.8076 17.3015 17.9104 17.2136 18.049 17.0688C18.1517 16.9624 18.2408 16.8374 18.3088 16.6951C18.4054 16.4934 18.5019 16.1085 18.5415 15.788C18.5712 15.543 18.5625 15.4094 18.5588 15.3264C18.5539 15.194 18.4437 15.0567 18.3237 14.9985L17.6035 14.6755C17.6035 14.6755 16.5268 14.2065 15.8685 13.907C15.7996 13.8769 15.7258 13.8598 15.6507 13.8563C15.566 13.8476 15.4805 13.8571 15.3998 13.8842C15.3191 13.9113 15.2451 13.9554 15.1829 14.0135C15.1767 14.011 15.0938 14.0815 14.1991 15.1656C14.1477 15.2346 14.077 15.2867 13.9959 15.3154C13.9148 15.344 13.827 15.3479 13.7437 15.3264C13.6631 15.3048 13.5841 15.2775 13.5073 15.2448C13.3539 15.1804 13.3007 15.1557 13.1955 15.1111C12.4852 14.8012 11.8277 14.3824 11.2464 13.8699C11.0905 13.7338 10.9457 13.5853 10.7972 13.4417C10.3104 12.9755 9.88607 12.448 9.53496 11.8726L9.46195 11.755C9.40951 11.676 9.36711 11.5908 9.33572 11.5013C9.2887 11.3194 9.41121 11.1734 9.41121 11.1734C9.41121 11.1734 9.71192 10.8442 9.85176 10.666C9.98789 10.4928 10.103 10.3245 10.1772 10.2044C10.3232 9.96931 10.369 9.72799 10.2923 9.54113C9.94581 8.69468 9.58694 7.85194 9.21816 7.01539C9.14515 6.84957 8.92859 6.73077 8.73182 6.70726C8.665 6.69983 8.59817 6.69241 8.53135 6.68746C8.36516 6.6792 8.19863 6.68085 8.03264 6.69241L8.28261 6.68375Z" fill="currentColor"/>
</svg>
