<svg width="33" height="35" viewBox="0 0 33 35" fill="none" xmlns="http://www.w3.org/2000/svg">
<path d="M24.5018 20.8268C18.5442 20.8578 17.5805 24.6641 17.2593 27.8825L17.1133 29.306H15.9159L15.7699 27.8825C15.4487 24.6641 14.4558 20.8578 8.70264 20.8268C7.73894 18.7224 7.33009 17.0204 7.33009 15.1017C7.33009 10.3052 11.039 5.81786 16.5291 5.81786C22.0194 5.81786 25.6699 10.2741 25.6699 15.1328C25.6699 17.0204 25.4947 18.7224 24.5018 20.8268ZM16.4708 0C7.41778 0 0 7.86037 0 17.4845C0 27.1398 7.41778 35 16.4708 35C25.6114 35 33 27.1398 33 17.4845C33 7.8604 25.6114 0 16.4708 0Z" fill="#29B24A"/>
</svg>
