<svg width="210" height="247" viewBox="0 0 210 247" fill="none" xmlns="http://www.w3.org/2000/svg">
<g clip-path="url(#clip0_230_8623)">
<path d="M62.4057 26.0759H0V247H42.3769V164.009H68.5182L49.1417 228.309L124.207 66.1521C135.369 42.0005 98.5251 26.0759 62.3815 26.0759H62.4057ZM62.4057 57.6365C75.887 57.6365 83.2075 62.6881 83.2075 78.4684V111.593C83.2075 127.373 75.887 132.424 62.4057 132.424H42.3769V57.6606H62.4057V57.6365Z" fill="url(#paint0_linear_230_8623)"/>
<path d="M146.845 72.3103L166.318 0L84.4395 175.941V246.735H126.792V210.195H146.821C189.198 210.195 209.976 190.951 209.976 155.59V126.868C209.976 92.0838 189.85 72.5749 148.85 72.2862H146.797L146.845 72.3103ZM146.845 103.847C160.326 103.847 167.647 108.898 167.647 124.679V157.827C167.647 173.607 160.326 178.659 146.845 178.659H126.816V103.871H146.845V103.847Z" fill="url(#paint1_linear_230_8623)"/>
</g>
<defs>
<linearGradient id="paint0_linear_230_8623" x1="63.119" y1="26.0759" x2="63.119" y2="247" gradientUnits="userSpaceOnUse">
<stop stop-color="#F2F3FF"/>
<stop offset="1" stop-color="#F9F9FF"/>
</linearGradient>
<linearGradient id="paint1_linear_230_8623" x1="147.208" y1="0" x2="147.208" y2="246.735" gradientUnits="userSpaceOnUse">
<stop stop-color="#F2F3FF"/>
<stop offset="1" stop-color="#F9F9FF"/>
</linearGradient>
<clipPath id="clip0_230_8623">
<rect width="210" height="247" fill="white"/>
</clipPath>
</defs>
</svg>
