<svg width="34" height="40" viewBox="0 0 34 40" fill="none" xmlns="http://www.w3.org/2000/svg">
<g clip-path="url(#clip0_230_6715)">
<path d="M10.1038 4.2229H0V40.0001H6.86102V26.5603H11.0934L7.95628 36.9732L20.1098 10.713C21.9169 6.80179 15.9517 4.2229 10.0999 4.2229H10.1038ZM10.1038 9.33392C12.2865 9.33392 13.4717 10.152 13.4717 12.7075V18.0717C13.4717 20.6273 12.2865 21.4453 10.1038 21.4453H6.86102V9.33782H10.1038V9.33392Z" fill="#438EC0"/>
<path d="M10.1038 4.2229H0V40.0001H6.86102V26.5603H11.0934L7.95628 36.9732L20.1098 10.713C21.9169 6.80179 15.9517 4.2229 10.0999 4.2229H10.1038ZM10.1038 9.33392C12.2865 9.33392 13.4717 10.152 13.4717 12.7075V18.0717C13.4717 20.6273 12.2865 21.4453 10.1038 21.4453H6.86102V9.33782H10.1038V9.33392Z" fill="url(#paint0_linear_230_6715)"/>
<path d="M23.7747 11.7102L26.9275 0L13.6709 28.4924V39.9571H20.528V34.0397H23.7708C30.6318 34.0397 33.9958 30.9233 33.9958 25.1967V20.5454C33.9958 14.9123 30.7374 11.753 24.0993 11.7063H23.7668L23.7747 11.7102ZM23.7747 16.8173C25.9574 16.8173 27.1426 17.6354 27.1426 20.1909V25.559C27.1426 28.1145 25.9574 28.9326 23.7747 28.9326H20.5319V16.8212H23.7747V16.8173Z" fill="#438EC0"/>
<path d="M23.7747 11.7102L26.9275 0L13.6709 28.4924V39.9571H20.528V34.0397H23.7708C30.6318 34.0397 33.9958 30.9233 33.9958 25.1967V20.5454C33.9958 14.9123 30.7374 11.753 24.0993 11.7063H23.7668L23.7747 11.7102ZM23.7747 16.8173C25.9574 16.8173 27.1426 17.6354 27.1426 20.1909V25.559C27.1426 28.1145 25.9574 28.9326 23.7747 28.9326H20.5319V16.8212H23.7747V16.8173Z" fill="url(#paint1_linear_230_6715)"/>
</g>
<defs>
<linearGradient id="paint0_linear_230_6715" x1="0" y1="15.4713" x2="20.3405" y2="15.4713" gradientUnits="userSpaceOnUse">
<stop stop-color="#2B2F63"/>
<stop offset="1" stop-color="#FBFBFC"/>
</linearGradient>
<linearGradient id="paint1_linear_230_6715" x1="13.6905" y1="24.1527" x2="34.031" y2="24.1527" gradientUnits="userSpaceOnUse">
<stop stop-color="#4890C0"/>
<stop offset="1" stop-color="#F8FBFD"/>
</linearGradient>
<clipPath id="clip0_230_6715">
<rect width="34" height="40" fill="white"/>
</clipPath>
</defs>
</svg>
