<svg width="29" height="35" viewBox="0 0 29 35" fill="none" xmlns="http://www.w3.org/2000/svg">
<path d="M14.2311 0C6.37126 0 0 6.2678 0 14C0 17.8647 1.59175 21.364 4.16615 23.8973C6.74127 26.432 12.808 30.1 13.1638 33.95C13.2171 34.5271 13.6419 35 14.2311 35C14.8203 35 15.2451 34.5271 15.2984 33.95C15.6542 30.1 21.7209 26.432 24.296 23.8973C26.8704 21.364 28.4622 17.8647 28.4622 14C28.4622 6.2678 22.0909 0 14.2311 0Z" fill="url(#paint0_linear_162_228)"/>
<path d="M14.2311 18.9007C16.982 18.9007 19.212 16.7069 19.212 14.0007C19.212 11.2945 16.982 9.10068 14.2311 9.10068C11.4802 9.10068 9.25021 11.2945 9.25021 14.0007C9.25021 16.7069 11.4802 18.9007 14.2311 18.9007Z" fill="white"/>
<defs>
<linearGradient id="paint0_linear_162_228" x1="14.2311" y1="0" x2="14.2311" y2="35" gradientUnits="userSpaceOnUse">
<stop stop-color="#FF6122"/>
<stop offset="1" stop-color="#F22411"/>
</linearGradient>
</defs>
</svg>
